ffmpeg version git-2026-04-19-de18feb Copyright (c) 2000-2026 the FFmpeg developers
  built with gcc 9 (Ubuntu 9.4.0-1ubuntu1~20.04.2)
  configuration: --enable-shared --enable-gpl --enable-libx264
  libavutil      60. 30.100 / 60. 30.100
  libavcodec     62. 30.100 / 62. 30.100
  libavformat    62. 13.102 / 62. 13.102
  libavdevice    62.  4.100 / 62.  4.100
  libavfilter    11. 15.101 / 11. 15.101
  libswscale      9.  7.100 /  9.  7.100
  libswresample   6.  4.100 /  6.  4.100
[in#0/x11grab @ 0x55c9e2eaac40] Stream #0: not enough frames to estimate rate; consider increasing probesize
Input #0, x11grab, from ':0.0+0,0':
  Duration: N/A, start: 1777654983.411714, bitrate: 3678192 kb/s
  Stream #0:0: Video: rawvideo (BGR[0] / 0x524742), bgr0, 2870x1602, 3678192 kb/s, 25 fps, 1000k tbr, 1000k tbn, start 1777654983.411714
Stream mapping:
  Stream #0:0 -> #0:0 (rawvideo (native) -> h264 (libx264))
[libx264 @ 0x55c9e2eb8f00] using cpu capabilities: MMX2 SSE2Fast SSSE3 SSE4.2 AVX FMA3 BMI2 AVX2
[libx264 @ 0x55c9e2eb8f00] profile High, level 5.0
[libx264 @ 0x55c9e2eb8f00] 264 - core 155 r2917 0a84d98 - H.264/MPEG-4 AVC codec - Copyleft 2003-2018 - http://www.videolan.org/x264.html - options: cabac=1 ref=1 deblock=1:0:0 analyse=0x3:0x113 me=hex subme=2 psy=1 psy_rd=1.00:0.00 mixed_ref=0 me_range=16 chroma_me=1 trellis=0 8x8dct=1 cqm=0 deadzone=21,11 fast_pskip=1 chroma_qp_offset=0 threads=6 lookahead_threads=2 sliced_threads=0 nr=0 decimate=1 interlaced=0 bluray_compat=0 constrained_intra=0 bframes=3 b_pyramid=2 b_adapt=1 b_bias=0 direct=1 weightb=1 open_gop=0 weightp=1 keyint=250 keyint_min=25 scenecut=40 intra_refresh=0 rc_lookahead=10 rc=crf mbtree=1 crf=23.0 qcomp=0.60 qpmin=0 qpmax=69 qpstep=4 ip_ratio=1.40 aq=1:1.00
Output #0, matroska, to '/home/lmy/catkin_ws/recordings_tmp/exp_turncmp5_point_v5/screen.mkv':
  Metadata:
    encoder         : Lavf62.13.102
  Stream #0:0: Video: h264 (H264 / 0x34363248), yuv420p(tv, progressive), 2870x1602, q=2-31, 25 fps, 1k tbn
    Metadata:
      encoder         : Lavc62.30.100 libx264
    Side data:
      CPB properties: bitrate max/min/avg: 0/0/0 buffer size: 0 vbv_delay: N/A
frame=    0 fps=0.0 q=0.0 size=       0KiB time=N/A bitrate=N/A speed=N/A elapsed=0:00:00.50    frame=    6 fps=6.0 q=28.0 size=       1KiB time=00:00:00.16 bitrate=  29.7kbits/s speed=0.16x elapsed=0:00:01.00    frame=   18 fps= 12 q=28.0 size=       1KiB time=00:00:00.64 bitrate=   7.4kbits/s speed=0.426x elapsed=0:00:01.50    frame=   31 fps= 15 q=28.0 size=       1KiB time=00:00:01.16 bitrate=   4.1kbits/s speed=0.58x elapsed=0:00:02.00    frame=   43 fps= 17 q=28.0 size=       1KiB time=00:00:01.64 bitrate=   2.9kbits/s speed=0.655x elapsed=0:00:02.50    frame=   56 fps= 19 q=28.0 size=       1KiB time=00:00:02.16 bitrate=   2.2kbits/s speed=0.719x elapsed=0:00:03.00    frame=   68 fps= 19 q=28.0 size=       1KiB time=00:00:02.64 bitrate=   1.8kbits/s speed=0.754x elapsed=0:00:03.50    frame=   81 fps= 20 q=28.0 size=       1KiB time=00:00:03.16 bitrate=   1.5kbits/s speed=0.788x elapsed=0:00:04.00    frame=   93 fps= 21 q=28.0 size=       1KiB time=00:00:03.64 bitrate=   1.3kbits/s speed=0.807x elapsed=0:00:04.51    frame=  106 fps= 21 q=28.0 size=       1KiB time=00:00:04.16 bitrate=   1.1kbits/s speed=0.829x elapsed=0:00:05.01    frame=  119 fps= 22 q=28.0 size=       1KiB time=00:00:04.68 bitrate=   1.0kbits/s speed=0.848x elapsed=0:00:05.51    frame=  131 fps= 22 q=28.0 size=     166KiB time=00:00:05.16 bitrate= 263.3kbits/s speed=0.857x elapsed=0:00:06.01    frame=  144 fps= 22 q=28.0 size=     166KiB time=00:00:05.68 bitrate= 239.2kbits/s speed=0.871x elapsed=0:00:06.51    frame=  156 fps= 22 q=28.0 size=     166KiB time=00:00:06.16 bitrate= 220.6kbits/s speed=0.877x elapsed=0:00:07.02    frame=  169 fps= 22 q=28.0 size=     166KiB time=00:00:06.68 bitrate= 203.4kbits/s speed=0.888x elapsed=0:00:07.52    frame=  181 fps= 23 q=28.0 size=     166KiB time=00:00:07.16 bitrate= 189.8kbits/s speed=0.892x elapsed=0:00:08.02    frame=  194 fps= 23 q=28.0 size=     166KiB time=00:00:07.68 bitrate= 176.9kbits/s speed=0.901x elapsed=0:00:08.52    frame=  206 fps= 23 q=28.0 size=     166KiB time=00:00:08.16 bitrate= 166.5kbits/s speed=0.904x elapsed=0:00:09.02    frame=  219 fps= 23 q=28.0 size=     166KiB time=00:00:08.68 bitrate= 156.5kbits/s speed=0.911x elapsed=0:00:09.52    frame=  232 fps= 23 q=28.0 size=     166KiB time=00:00:09.20 bitrate= 147.7kbits/s speed=0.918x elapsed=0:00:10.02    frame=  244 fps= 23 q=28.0 size=     166KiB time=00:00:09.68 bitrate= 140.4kbits/s speed=0.92x elapsed=0:00:10.52    frame=  256 fps= 23 q=28.0 size=     256KiB time=00:00:10.16 bitrate= 206.4kbits/s speed=0.921x elapsed=0:00:11.02    frame=  269 fps= 23 q=28.0 size=     256KiB time=00:00:10.68 bitrate= 196.4kbits/s speed=0.927x elapsed=0:00:11.52    frame=  281 fps= 23 q=28.0 size=     256KiB time=00:00:11.16 bitrate= 187.9kbits/s speed=0.928x elapsed=0:00:12.02    frame=  294 fps= 23 q=28.0 size=     256KiB time=00:00:11.68 bitrate= 179.6kbits/s speed=0.932x elapsed=0:00:12.52    frame=  306 fps= 23 q=28.0 size=     256KiB time=00:00:12.16 bitrate= 172.5kbits/s speed=0.933x elapsed=0:00:13.02    frame=  319 fps= 24 q=28.0 size=     256KiB time=00:00:12.68 bitrate= 165.4kbits/s speed=0.937x elapsed=0:00:13.52    frame=  331 fps= 24 q=28.0 size=     256KiB time=00:00:13.16 bitrate= 159.4kbits/s speed=0.938x elapsed=0:00:14.02    frame=  344 fps= 24 q=28.0 size=     256KiB time=00:00:13.68 bitrate= 153.3kbits/s speed=0.942x elapsed=0:00:14.52    frame=  357 fps= 24 q=28.0 size=     256KiB time=00:00:14.20 bitrate= 147.7kbits/s speed=0.945x elapsed=0:00:15.02    frame=  369 fps= 24 q=28.0 size=     256KiB time=00:00:14.68 bitrate= 142.9kbits/s speed=0.945x elapsed=0:00:15.52    frame=  382 fps= 24 q=28.0 size=     512KiB time=00:00:15.20 bitrate= 275.9kbits/s speed=0.948x elapsed=0:00:16.02    frame=  394 fps= 24 q=28.0 size=     512KiB time=00:00:15.68 bitrate= 267.5kbits/s speed=0.949x elapsed=0:00:16.52    frame=  407 fps= 24 q=28.0 size=     512KiB time=00:00:16.20 bitrate= 258.9kbits/s speed=0.951x elapsed=0:00:17.02    frame=  419 fps= 24 q=28.0 size=     512KiB time=00:00:16.68 bitrate= 251.5kbits/s speed=0.952x elapsed=0:00:17.52    frame=  432 fps= 24 q=28.0 size=     512KiB time=00:00:17.20 bitrate= 243.9kbits/s speed=0.954x elapsed=0:00:18.02    frame=  444 fps= 24 q=28.0 size=     512KiB time=00:00:17.68 bitrate= 237.2kbits/s speed=0.954x elapsed=0:00:18.53    frame=  456 fps= 24 q=28.0 size=     512KiB time=00:00:18.16 bitrate= 231.0kbits/s speed=0.954x elapsed=0:00:19.03    frame=  469 fps= 24 q=28.0 size=     512KiB time=00:00:18.68 bitrate= 224.5kbits/s speed=0.956x elapsed=0:00:19.53    frame=  481 fps= 24 q=28.0 size=     512KiB time=00:00:19.16 bitrate= 218.9kbits/s speed=0.956x elapsed=0:00:20.03    frame=  494 fps= 24 q=28.0 size=     512KiB time=00:00:19.68 bitrate= 213.1kbits/s speed=0.958x elapsed=0:00:20.53    frame=  507 fps= 24 q=28.0 size=     768KiB time=00:00:20.20 bitrate= 311.5kbits/s speed=0.96x elapsed=0:00:21.03    frame=  519 fps= 24 q=28.0 size=     768KiB time=00:00:20.68 bitrate= 304.2kbits/s speed=0.96x elapsed=0:00:21.53    frame=  532 fps= 24 q=28.0 size=     768KiB time=00:00:21.20 bitrate= 296.8kbits/s speed=0.962x elapsed=0:00:22.03    frame=  544 fps= 24 q=28.0 size=     768KiB time=00:00:21.68 bitrate= 290.2kbits/s speed=0.962x elapsed=0:00:22.53    frame=  557 fps= 24 q=28.0 size=     768KiB time=00:00:22.20 bitrate= 283.4kbits/s speed=0.964x elapsed=0:00:23.03    frame=  569 fps= 24 q=28.0 size=     768KiB time=00:00:22.68 bitrate= 277.4kbits/s speed=0.964x elapsed=0:00:23.53    frame=  582 fps= 24 q=28.0 size=     768KiB time=00:00:23.20 bitrate= 271.2kbits/s speed=0.965x elapsed=0:00:24.03    frame=  594 fps= 24 q=28.0 size=     768KiB time=00:00:23.68 bitrate= 265.7kbits/s speed=0.965x elapsed=0:00:24.53    frame=  607 fps= 24 q=28.0 size=     768KiB time=00:00:24.20 bitrate= 260.0kbits/s speed=0.967x elapsed=0:00:25.03    frame=  619 fps= 24 q=28.0 size=     768KiB time=00:00:24.68 bitrate= 254.9kbits/s speed=0.966x elapsed=0:00:25.53    frame=  632 fps= 24 q=28.0 size=    1024KiB time=00:00:25.20 bitrate= 332.9kbits/s speed=0.968x elapsed=0:00:26.03    frame=  644 fps= 24 q=28.0 size=    1024KiB time=00:00:25.68 bitrate= 326.7kbits/s speed=0.968x elapsed=0:00:26.53    frame=  657 fps= 24 q=28.0 size=    1024KiB time=00:00:26.20 bitrate= 320.2kbits/s speed=0.969x elapsed=0:00:27.03    frame=  669 fps= 24 q=28.0 size=    1024KiB time=00:00:26.68 bitrate= 314.4kbits/s speed=0.969x elapsed=0:00:27.53    frame=  682 fps= 24 q=28.0 size=    1024KiB time=00:00:27.20 bitrate= 308.4kbits/s speed=0.97x elapsed=0:00:28.03    frame=  694 fps= 24 q=28.0 size=    1024KiB time=00:00:27.68 bitrate= 303.1kbits/s speed=0.97x elapsed=0:00:28.54    frame=  707 fps= 24 q=28.0 size=    1024KiB time=00:00:28.20 bitrate= 297.5kbits/s speed=0.971x elapsed=0:00:29.04    frame=  719 fps= 24 q=28.0 size=    1024KiB time=00:00:28.68 bitrate= 292.5kbits/s speed=0.971x elapsed=0:00:29.54    frame=  732 fps= 24 q=28.0 size=    1024KiB time=00:00:29.20 bitrate= 287.3kbits/s speed=0.972x elapsed=0:00:30.04    frame=  744 fps= 24 q=28.0 size=    1024KiB time=00:00:29.68 bitrate= 282.6kbits/s speed=0.972x elapsed=0:00:30.54    frame=  757 fps= 24 q=28.0 size=    1024KiB time=00:00:30.20 bitrate= 277.8kbits/s speed=0.973x elapsed=0:00:31.04    frame=  769 fps= 24 q=28.0 size=    1024KiB time=00:00:30.68 bitrate= 273.4kbits/s speed=0.973x elapsed=0:00:31.54    frame=  782 fps= 24 q=28.0 size=    1024KiB time=00:00:31.20 bitrate= 268.9kbits/s speed=0.974x elapsed=0:00:32.04    frame=  794 fps= 24 q=28.0 size=    1024KiB time=00:00:31.68 bitrate= 264.8kbits/s speed=0.973x elapsed=0:00:32.54    frame=  807 fps= 24 q=28.0 size=    1024KiB time=00:00:32.20 bitrate= 260.5kbits/s speed=0.974x elapsed=0:00:33.04    frame=  819 fps= 24 q=28.0 size=    1024KiB time=00:00:32.68 bitrate= 256.7kbits/s speed=0.974x elapsed=0:00:33.54    frame=  832 fps= 24 q=28.0 size=    1024KiB time=00:00:33.20 bitrate= 252.7kbits/s speed=0.975x elapsed=0:00:34.04    frame=  844 fps= 24 q=28.0 size=    1024KiB time=00:00:33.68 bitrate= 249.1kbits/s speed=0.975x elapsed=0:00:34.54    frame=  857 fps= 24 q=28.0 size=    1024KiB time=00:00:34.20 bitrate= 245.3kbits/s speed=0.976x elapsed=0:00:35.04    frame=  869 fps= 24 q=28.0 size=    1024KiB time=00:00:34.68 bitrate= 241.9kbits/s speed=0.976x elapsed=0:00:35.54    frame=  882 fps= 24 q=28.0 size=    1280KiB time=00:00:35.20 bitrate= 297.9kbits/s speed=0.977x elapsed=0:00:36.04    frame=  895 fps= 24 q=28.0 size=    1280KiB time=00:00:35.72 bitrate= 293.6kbits/s speed=0.977x elapsed=0:00:36.55    frame=  907 fps= 24 q=28.0 size=    1280KiB time=00:00:36.20 bitrate= 289.7kbits/s speed=0.977x elapsed=0:00:37.05    frame=  919 fps= 24 q=28.0 size=    1280KiB time=00:00:36.68 bitrate= 285.9kbits/s speed=0.977x elapsed=0:00:37.55    frame=  932 fps= 24 q=28.0 size=    1280KiB time=00:00:37.20 bitrate= 281.9kbits/s speed=0.978x elapsed=0:00:38.05    frame=  944 fps= 24 q=28.0 size=    1280KiB time=00:00:37.68 bitrate= 278.3kbits/s speed=0.977x elapsed=0:00:38.55    frame=  957 fps= 25 q=28.0 size=    1280KiB time=00:00:38.20 bitrate= 274.5kbits/s speed=0.978x elapsed=0:00:39.05    frame=  970 fps= 25 q=28.0 size=    1280KiB time=00:00:38.72 bitrate= 270.8kbits/s speed=0.979x elapsed=0:00:39.55    frame=  982 fps= 25 q=28.0 size=    1280KiB time=00:00:39.20 bitrate= 267.5kbits/s speed=0.979x elapsed=0:00:40.05    frame=  995 fps= 25 q=28.0 size=    1280KiB time=00:00:39.72 bitrate= 264.0kbits/s speed=0.979x elapsed=0:00:40.55    frame= 1007 fps= 25 q=28.0 size=    1536KiB time=00:00:40.20 bitrate= 313.0kbits/s speed=0.979x elapsed=0:00:41.05    frame= 1020 fps= 25 q=28.0 size=    1536KiB time=00:00:40.72 bitrate= 309.0kbits/s speed=0.98x elapsed=0:00:41.55    frame= 1032 fps= 25 q=28.0 size=    1536KiB time=00:00:41.20 bitrate= 305.4kbits/s speed=0.98x elapsed=0:00:42.05    frame= 1045 fps= 25 q=28.0 size=    1536KiB time=00:00:41.72 bitrate= 301.6kbits/s speed=0.98x elapsed=0:00:42.55    frame= 1057 fps= 25 q=28.0 size=    1536KiB time=00:00:42.20 bitrate= 298.2kbits/s speed=0.98x elapsed=0:00:43.05    frame= 1070 fps= 25 q=28.0 size=    1536KiB time=00:00:42.72 bitrate= 294.5kbits/s speed=0.981x elapsed=0:00:43.55    frame= 1082 fps= 25 q=28.0 size=    1536KiB time=00:00:43.20 bitrate= 291.3kbits/s speed=0.981x elapsed=0:00:44.05    frame= 1095 fps= 25 q=28.0 size=    1536KiB time=00:00:43.72 bitrate= 287.8kbits/s speed=0.981x elapsed=0:00:44.55    frame= 1107 fps= 25 q=28.0 size=    1536KiB time=00:00:44.20 bitrate= 284.7kbits/s speed=0.981x elapsed=0:00:45.05    frame= 1120 fps= 25 q=28.0 size=    1536KiB time=00:00:44.72 bitrate= 281.4kbits/s speed=0.982x elapsed=0:00:45.55    frame= 1132 fps= 25 q=28.0 size=    1792KiB time=00:00:45.20 bitrate= 324.8kbits/s speed=0.981x elapsed=0:00:46.06    frame= 1145 fps= 25 q=28.0 size=    1792KiB time=00:00:45.72 bitrate= 321.1kbits/s speed=0.982x elapsed=0:00:46.56    frame= 1157 fps= 25 q=28.0 size=    1792KiB time=00:00:46.20 bitrate= 317.8kbits/s speed=0.982x elapsed=0:00:47.06    frame= 1170 fps= 25 q=28.0 size=    1792KiB time=00:00:46.72 bitrate= 314.2kbits/s speed=0.982x elapsed=0:00:47.56    frame= 1182 fps= 25 q=28.0 size=    1792KiB time=00:00:47.20 bitrate= 311.0kbits/s speed=0.982x elapsed=0:00:48.06    frame= 1195 fps= 25 q=28.0 size=    1792KiB time=00:00:47.72 bitrate= 307.6kbits/s speed=0.983x elapsed=0:00:48.56    frame= 1207 fps= 25 q=28.0 size=    1792KiB time=00:00:48.20 bitrate= 304.6kbits/s speed=0.982x elapsed=0:00:49.06    frame= 1220 fps= 25 q=28.0 size=    1792KiB time=00:00:48.72 bitrate= 301.3kbits/s speed=0.983x elapsed=0:00:49.56    frame= 1232 fps= 25 q=28.0 size=    1792KiB time=00:00:49.20 bitrate= 298.4kbits/s speed=0.983x elapsed=0:00:50.06    frame= 1245 fps= 25 q=28.0 size=    1792KiB time=00:00:49.72 bitrate= 295.3kbits/s speed=0.983x elapsed=0:00:50.56    frame= 1257 fps= 25 q=28.0 size=    1792KiB time=00:00:50.20 bitrate= 292.4kbits/s speed=0.983x elapsed=0:00:51.06    frame= 1270 fps= 25 q=28.0 size=    1792KiB time=00:00:50.72 bitrate= 289.4kbits/s speed=0.984x elapsed=0:00:51.56    frame= 1282 fps= 25 q=28.0 size=    1792KiB time=00:00:51.20 bitrate= 286.7kbits/s speed=0.983x elapsed=0:00:52.06    frame= 1295 fps= 25 q=28.0 size=    1792KiB time=00:00:51.72 bitrate= 283.8kbits/s speed=0.984x elapsed=0:00:52.56    frame= 1307 fps= 25 q=28.0 size=    1792KiB time=00:00:52.20 bitrate= 281.2kbits/s speed=0.984x elapsed=0:00:53.06    frame= 1320 fps= 25 q=28.0 size=    1792KiB time=00:00:52.72 bitrate= 278.5kbits/s speed=0.984x elapsed=0:00:53.56    frame= 1332 fps= 25 q=28.0 size=    1792KiB time=00:00:53.20 bitrate= 275.9kbits/s speed=0.984x elapsed=0:00:54.06    frame= 1345 fps= 25 q=28.0 size=    1792KiB time=00:00:53.72 bitrate= 273.3kbits/s speed=0.984x elapsed=0:00:54.56    frame= 1357 fps= 25 q=28.0 size=    1792KiB time=00:00:54.20 bitrate= 270.8kbits/s speed=0.984x elapsed=0:00:55.06    frame= 1370 fps= 25 q=28.0 size=    1792KiB time=00:00:54.72 bitrate= 268.3kbits/s speed=0.985x elapsed=0:00:55.56    frame= 1382 fps= 25 q=28.0 size=    2048KiB time=00:00:55.24 bitrate= 303.7kbits/s speed=0.985x elapsed=0:00:56.06    frame= 1395 fps= 25 q=28.0 size=    2048KiB time=00:00:55.72 bitrate= 301.1kbits/s speed=0.985x elapsed=0:00:56.56    frame= 1407 fps= 25 q=28.0 size=    2048KiB time=00:00:56.20 bitrate= 298.5kbits/s speed=0.985x elapsed=0:00:57.06    frame= 1420 fps= 25 q=28.0 size=    2048KiB time=00:00:56.72 bitrate= 295.8kbits/s speed=0.985x elapsed=0:00:57.56    frame= 1433 fps= 25 q=28.0 size=    2048KiB time=00:00:57.24 bitrate= 293.1kbits/s speed=0.986x elapsed=0:00:58.06    frame= 1445 fps= 25 q=28.0 size=    2048KiB time=00:00:57.72 bitrate= 290.7kbits/s speed=0.985x elapsed=0:00:58.56    frame= 1457 fps= 25 q=28.0 size=    2048KiB time=00:00:58.20 bitrate= 288.3kbits/s speed=0.985x elapsed=0:00:59.06    frame= 1470 fps= 25 q=28.0 size=    2048KiB time=00:00:58.72 bitrate= 285.7kbits/s speed=0.986x elapsed=0:00:59.57    frame= 1482 fps= 25 q=28.0 size=    2048KiB time=00:00:59.20 bitrate= 283.4kbits/s speed=0.986x elapsed=0:01:00.07    frame= 1495 fps= 25 q=28.0 size=    2048KiB time=00:00:59.72 bitrate= 280.9kbits/s speed=0.986x elapsed=0:01:00.57    frame= 1507 fps= 25 q=28.0 size=    2304KiB time=00:01:00.20 bitrate= 313.5kbits/s speed=0.986x elapsed=0:01:01.07    frame= 1520 fps= 25 q=28.0 size=    2304KiB time=00:01:00.72 bitrate= 310.8kbits/s speed=0.986x elapsed=0:01:01.57    frame= 1533 fps= 25 q=28.0 size=    2304KiB time=00:01:01.24 bitrate= 308.2kbits/s speed=0.987x elapsed=0:01:02.07    frame= 1545 fps= 25 q=28.0 size=    2304KiB time=00:01:01.72 bitrate= 305.8kbits/s speed=0.986x elapsed=0:01:02.57    frame= 1558 fps= 25 q=28.0 size=    2304KiB time=00:01:02.24 bitrate= 303.3kbits/s speed=0.987x elapsed=0:01:03.07    frame= 1570 fps= 25 q=28.0 size=    2304KiB time=00:01:02.72 bitrate= 300.9kbits/s speed=0.987x elapsed=0:01:03.57    frame= 1583 fps= 25 q=28.0 size=    2304KiB time=00:01:03.24 bitrate= 298.5kbits/s speed=0.987x elapsed=0:01:04.07    frame= 1595 fps= 25 q=28.0 size=    2304KiB time=00:01:03.72 bitrate= 296.2kbits/s speed=0.987x elapsed=0:01:04.57    frame= 1608 fps= 25 q=28.0 size=    2304KiB time=00:01:04.24 bitrate= 293.8kbits/s speed=0.987x elapsed=0:01:05.07    frame= 1620 fps= 25 q=28.0 size=    2304KiB time=00:01:04.72 bitrate= 291.6kbits/s speed=0.987x elapsed=0:01:05.57    frame= 1633 fps= 25 q=28.0 size=    2560KiB time=00:01:05.24 bitrate= 321.5kbits/s speed=0.987x elapsed=0:01:06.07    frame= 1645 fps= 25 q=28.0 size=    2560KiB time=00:01:05.72 bitrate= 319.1kbits/s speed=0.987x elapsed=0:01:06.57    frame= 1658 fps= 25 q=28.0 size=    2560KiB time=00:01:06.24 bitrate= 316.6kbits/s speed=0.988x elapsed=0:01:07.07    frame= 1670 fps= 25 q=28.0 size=    2560KiB time=00:01:06.72 bitrate= 314.3kbits/s speed=0.987x elapsed=0:01:07.57    frame= 1683 fps= 25 q=28.0 size=    2560KiB time=00:01:07.24 bitrate= 311.9kbits/s speed=0.988x elapsed=0:01:08.07    frame= 1695 fps= 25 q=28.0 size=    2560KiB time=00:01:07.72 bitrate= 309.7kbits/s speed=0.988x elapsed=0:01:08.57    frame= 1708 fps= 25 q=28.0 size=    2560KiB time=00:01:08.24 bitrate= 307.3kbits/s speed=0.988x elapsed=0:01:09.07    frame= 1720 fps= 25 q=28.0 size=    2560KiB time=00:01:08.72 bitrate= 305.2kbits/s speed=0.988x elapsed=0:01:09.57    frame= 1733 fps= 25 q=28.0 size=    2560KiB time=00:01:09.24 bitrate= 302.9kbits/s speed=0.988x elapsed=0:01:10.08    [out#0/matroska @ 0x55c9e2eb7500] video:2962KiB audio:0KiB subtitle:0KiB other streams:0KiB global headers:0KiB muxing overhead: 0.441274%
frame= 1766 fps= 25 q=-1.0 Lsize=    2975KiB time=00:01:10.56 bitrate= 345.4kbits/s speed=0.998x elapsed=0:01:10.72    
[libx264 @ 0x55c9e2eb8f00] frame I:8     Avg QP:11.23  size:110973
[libx264 @ 0x55c9e2eb8f00] frame P:445   Avg QP:16.60  size:  3188
[libx264 @ 0x55c9e2eb8f00] frame B:1313  Avg QP:19.22  size:   553
[libx264 @ 0x55c9e2eb8f00] consecutive B-frames:  0.8%  0.1%  0.3% 98.8%
[libx264 @ 0x55c9e2eb8f00] mb I  I16..4: 89.1%  2.0%  9.0%
[libx264 @ 0x55c9e2eb8f00] mb P  I16..4:  0.9%  0.1%  0.1%  P16..4:  0.4%  0.2%  0.2%  0.0%  0.0%    skip:98.2%
[libx264 @ 0x55c9e2eb8f00] mb B  I16..4:  0.3%  0.0%  0.0%  B16..8:  0.3%  0.1%  0.0%  direct: 0.1%  skip:99.2%  L0:46.7% L1:46.9% BI: 6.5%
[libx264 @ 0x55c9e2eb8f00] 8x8 transform intra:2.7% inter:2.4%
[libx264 @ 0x55c9e2eb8f00] coded y,uvDC,uvAC intra: 9.2% 14.6% 11.4% inter: 0.1% 0.1% 0.1%
[libx264 @ 0x55c9e2eb8f00] i16 v,h,dc,p: 46% 53%  1%  0%
[libx264 @ 0x55c9e2eb8f00] i8 v,h,dc,ddl,ddr,vr,hd,vl,hu: 16% 14% 63%  1%  1%  3%  1%  0%  1%
[libx264 @ 0x55c9e2eb8f00] i4 v,h,dc,ddl,ddr,vr,hd,vl,hu: 27% 32% 22%  2%  2%  5%  3%  4%  3%
[libx264 @ 0x55c9e2eb8f00] i8c dc,h,v,p: 43% 51%  6%  0%
[libx264 @ 0x55c9e2eb8f00] Weighted P-Frames: Y:0.0% UV:0.0%
[libx264 @ 0x55c9e2eb8f00] kb/s:343.39
Exiting normally, received signal 2.
